<?xml version="1.0" encoding="UTF-8" standalone="no"?>
<svg
   xmlns:dc="http://purl.org/dc/elements/1.1/"
   xmlns:cc="http://creativecommons.org/ns#"
   xmlns:rdf="http://www.w3.org/1999/02/22-rdf-syntax-ns#"
   xmlns:svg="http://www.w3.org/2000/svg"
   xmlns="http://www.w3.org/2000/svg"
   version="1.1"
   viewBox="0 0 100 100"
   xml:space="preserve"
   id="svg6"><metadata
     id="metadata12"><rdf:RDF><cc:Work
         rdf:about=""><dc:format>image/svg+xml</dc:format><dc:type
           rdf:resource="http://purl.org/dc/dcmitype/StillImage" /><dc:title></dc:title></cc:Work></rdf:RDF></metadata><defs
     id="defs10" /><path
     d="M 80.771051,52.675244 C 82.66216,41.98452 78.078547,30.729702 68.08992,24.274201 58.101294,17.818701 45.499008,17.966494 35.871656,23.655953 18.665753,15.764269 4.8325401,13.317225 1.2115454,18.46741 c -4.5012367,6.400219 8.2575624,22.421638 29.3751296,37.943269 0.03295,0.0237 0.06472,0.04738 0.09767,0.07108 0.697839,0.512199 1.406269,1.023269 2.12176,1.534338 0.09767,0.06995 0.195348,0.141025 0.294198,0.2121 0.64253,0.455789 1.294473,0.911577 1.951125,1.366238 0.174166,0.120715 0.3448,0.24256 0.520142,0.363277 0.621347,0.427583 1.25211,0.852911 1.885224,1.278239 0.208293,0.139895 0.411878,0.280918 0.621347,0.420814 0.839055,0.56071 1.6887,1.118036 2.54776,1.673105 0.861413,0.556197 1.721649,1.103369 2.579532,1.640388 0.169458,0.10605 0.336563,0.206459 0.504844,0.311379 0.696662,0.433226 1.392148,0.863065 2.086455,1.28388 0.138862,0.08348 0.275371,0.164716 0.414232,0.247075 0.727259,0.438865 1.453341,0.870961 2.17707,1.295161 0.09179,0.05302 0.182402,0.104921 0.274192,0.157946 0.773154,0.451275 1.54513,0.895783 2.313577,1.331263 0.03649,0.02031 0.07297,0.03949 0.108264,0.0598 22.927476,12.947102 43.203636,18.27554 47.704873,11.875322 3.621,-5.150188 -3.934019,-16.525722 -18.01789,-28.856833 z M 17.239479,26.954779 c 1.400385,-1.992383 6.271134,-1.471159 13.048291,0.975884 -1.250932,1.224085 -2.410075,2.566631 -3.445652,4.040047 -1.46864,2.089407 -2.599539,4.298402 -3.424471,6.570576 -5.147296,-5.269774 -7.611503,-9.547868 -6.178168,-11.586507 z m 67.329087,43.517654 c -1.433336,2.038637 -6.494726,1.450851 -13.519009,-1.145112 1.887578,-1.585107 3.599814,-3.419543 5.068451,-5.50895 1.03558,-1.472288 1.899346,-3.005497 2.61366,-4.578193 4.907231,5.106186 7.23846,9.239873 5.836898,11.232255 z"
     id="path2"
     style="fill:#ffffff;stroke-width:1.15223539" /><path
     d="m 22.070218,51.971253 c 1.159142,7.673945 5.563881,14.86841 12.79881,19.543626 7.23493,4.676346 15.843177,5.892534 23.698276,4.044561 C 52.490341,72.537019 46.092112,68.904249 39.637397,64.732204 33.18386,60.562415 27.271646,56.238066 22.070218,51.971253 Z"
     id="path4"
     style="fill:#ffffff;stroke-width:1.15223539" /></svg>